<ttFont>
    <TTGlyph name=".notdef" xMin="193" yMin="0" xMax="1034" yMax="1462">
      <contour>
        <pt x="193" y="1462" on="1"/>
        <pt x="1034" y="1462" on="1"/>
        <pt x="1034" y="0" on="1"/>
        <pt x="193" y="0" on="1"/>
      </contour>
      <contour>
        <pt x="297" y="104" on="1"/>
        <pt x="930" y="104" on="1"/>
        <pt x="930" y="1358" on="1"/>
        <pt x="297" y="1358" on="1"/>
      </contour>
    </TTGlyph>
    <TTGlyph name="glyph00004" xMin="41" yMin="0" xMax="1305" yMax="1462">
      <contour>
        <pt x="571" y="1462" on="1"/>
        <pt x="756" y="1462" on="1"/>
        <pt x="1305" y="1075" on="1"/>
        <pt x="1204" y="932" on="1"/>
        <pt x="756" y="1253" on="1"/>
        <pt x="756" y="0" on="1"/>
        <pt x="571" y="0" on="1"/>
        <pt x="41" y="367" on="1"/>
        <pt x="145" y="516" on="1"/>
        <pt x="571" y="211" on="1"/>
      </contour>
    </TTGlyph>
    <TTGlyph name="glyph00005" xMin="41" yMin="0" xMax="1305" yMax="1462">
      <contour>
        <pt x="774" y="211" on="1"/>
        <pt x="1200" y="516" on="1"/>
        <pt x="1305" y="367" on="1"/>
        <pt x="774" y="0" on="1"/>
        <pt x="590" y="0" on="1"/>
        <pt x="590" y="1253" on="1"/>
        <pt x="141" y="932" on="1"/>
        <pt x="41" y="1075" on="1"/>
        <pt x="590" y="1462" on="1"/>
        <pt x="774" y="1462" on="1"/>
      </contour>
    </TTGlyph>
    <TTGlyph name="glyph00006" xMin="92" yMin="-29" xMax="1026" yMax="1481">
      <contour>
        <pt x="1026" y="63" on="1"/>
        <pt x="877" y="-29" on="1"/>
        <pt x="559" y="414" on="1"/>
        <pt x="242" y="-29" on="1"/>
        <pt x="92" y="63" on="1"/>
        <pt x="465" y="580" on="1"/>
        <pt x="465" y="872" on="1"/>
        <pt x="92" y="1389" on="1"/>
        <pt x="242" y="1481" on="1"/>
        <pt x="559" y="1038" on="1"/>
        <pt x="877" y="1481" on="1"/>
        <pt x="1026" y="1389" on="1"/>
        <pt x="653" y="872" on="1"/>
        <pt x="653" y="580" on="1"/>
      </contour>
    </TTGlyph>
    <TTGlyph name="glyph00007" xMin="205" yMin="0" xMax="938" yMax="1462">
      <contour>
        <pt x="205" y="0" on="1"/>
        <pt x="205" y="1462" on="1"/>
        <pt x="389" y="1462" on="1"/>
        <pt x="938" y="1075" on="1"/>
        <pt x="838" y="932" on="1"/>
        <pt x="389" y="1253" on="1"/>
        <pt x="389" y="0" on="1"/>
      </contour>
    </TTGlyph>
    <TTGlyph name="glyph00008" xMin="205" yMin="0" xMax="938" yMax="1462">
      <contour>
        <pt x="389" y="928" on="1"/>
        <pt x="938" y="541" on="1"/>
        <pt x="838" y="397" on="1"/>
        <pt x="389" y="719" on="1"/>
        <pt x="389" y="0" on="1"/>
        <pt x="205" y="0" on="1"/>
        <pt x="205" y="1462" on="1"/>
        <pt x="389" y="1462" on="1"/>
      </contour>
    </TTGlyph>
    <TTGlyph name="glyph00009" xMin="123" yMin="-18" xMax="920" yMax="1497">
      <contour>
        <pt x="858" y="739" on="1"/>
        <pt x="858" y="514" on="0"/>
        <pt x="647" y="297" on="1"/>
        <pt x="768" y="200" on="0"/>
        <pt x="920" y="115" on="1"/>
        <pt x="821" y="-18" on="1"/>
        <pt x="651" y="79" on="0"/>
        <pt x="520" y="184" on="1"/>
        <pt x="387" y="78" on="0"/>
        <pt x="221" y="-18" on="1"/>
        <pt x="123" y="115" on="1"/>
        <pt x="271" y="201" on="0"/>
        <pt x="395" y="297" on="1"/>
        <pt x="184" y="514" on="0"/>
        <pt x="184" y="739" on="1"/>
        <pt x="184" y="961" on="0"/>
        <pt x="395" y="1180" on="1"/>
        <pt x="271" y="1277" on="0"/>
        <pt x="123" y="1364" on="1"/>
        <pt x="221" y="1497" on="1"/>
        <pt x="390" y="1400" on="0"/>
        <pt x="520" y="1294" on="1"/>
        <pt x="649" y="1399" on="0"/>
        <pt x="821" y="1497" on="1"/>
        <pt x="920" y="1364" on="1"/>
        <pt x="768" y="1278" on="0"/>
        <pt x="647" y="1180" on="1"/>
        <pt x="858" y="961" on="0"/>
      </contour>
      <contour>
        <pt x="365" y="739" on="1"/>
        <pt x="365" y="579" on="0"/>
        <pt x="520" y="412" on="1"/>
        <pt x="678" y="578" on="0"/>
        <pt x="678" y="739" on="1"/>
        <pt x="678" y="898" on="0"/>
        <pt x="520" y="1065" on="1"/>
        <pt x="365" y="896" on="0"/>
      </contour>
    </TTGlyph>
    <TTGlyph name="glyph00010" xMin="205" yMin="0" xMax="793" yMax="1462">
      <contour>
        <pt x="793" y="731" on="1"/>
        <pt x="654" y="618" on="0"/>
        <pt x="503" y="472" on="0"/>
        <pt x="424" y="355" on="0"/>
        <pt x="389" y="228" on="0"/>
        <pt x="389" y="96" on="1"/>
        <pt x="389" y="0" on="1"/>
        <pt x="205" y="0" on="1"/>
        <pt x="205" y="133" on="1"/>
        <pt x="205" y="284" on="0"/>
        <pt x="263" y="457" on="0"/>
        <pt x="400" y="628" on="0"/>
        <pt x="524" y="731" on="1"/>
        <pt x="399" y="834" on="0"/>
        <pt x="263" y="1006" on="0"/>
        <pt x="205" y="1180" on="0"/>
        <pt x="205" y="1329" on="1"/>
        <pt x="205" y="1462" on="1"/>
        <pt x="389" y="1462" on="1"/>
        <pt x="389" y="1366" on="1"/>
        <pt x="389" y="1236" on="0"/>
        <pt x="423" y="1108" on="0"/>
        <pt x="502" y="991" on="0"/>
        <pt x="652" y="845" on="0"/>
      </contour>
    </TTGlyph>
    <TTGlyph name="glyph00011" xMin="205" yMin="0" xMax="1077" yMax="1462">
      <contour>
        <pt x="205" y="1462" on="1"/>
        <pt x="389" y="1462" on="1"/>
        <pt x="893" y="903" on="1"/>
        <pt x="893" y="1462" on="1"/>
        <pt x="1077" y="1462" on="1"/>
        <pt x="1077" y="637" on="1"/>
        <pt x="893" y="637" on="1"/>
        <pt x="389" y="1204" on="1"/>
        <pt x="389" y="0" on="1"/>
        <pt x="205" y="0" on="1"/>
      </contour>
    </TTGlyph>
    <TTGlyph name="glyph00012" xMin="205" yMin="0" xMax="1118" yMax="1462">
      <contour>
        <pt x="952" y="530" on="1"/>
        <pt x="389" y="854" on="1"/>
        <pt x="389" y="0" on="1"/>
        <pt x="205" y="0" on="1"/>
        <pt x="205" y="1462" on="1"/>
        <pt x="389" y="1462" on="1"/>
        <pt x="389" y="1042" on="1"/>
        <pt x="840" y="780" on="1"/>
        <pt x="805" y="879" on="0"/>
        <pt x="805" y="1032" on="1"/>
        <pt x="805" y="1156" on="0"/>
        <pt x="870" y="1364" on="0"/>
        <pt x="924" y="1462" on="1"/>
        <pt x="1118" y="1462" on="1"/>
        <pt x="983" y="1248" on="0"/>
        <pt x="983" y="1022" on="1"/>
        <pt x="983" y="817" on="0"/>
        <pt x="1063" y="623" on="1"/>
      </contour>
    </TTGlyph>
    <TTGlyph name="glyph00013" xMin="102" yMin="-20" xMax="1124" yMax="1462">
      <contour>
        <pt x="719" y="1462" on="1"/>
        <pt x="719" y="1237" on="1"/>
        <pt x="719" y="1193" on="0"/>
        <pt x="756" y="1122" on="0"/>
        <pt x="807" y="1079" on="1"/>
        <pt x="944" y="964" on="0"/>
        <pt x="1062" y="805" on="0"/>
        <pt x="1124" y="615" on="0"/>
        <pt x="1124" y="496" on="1"/>
        <pt x="1124" y="356" on="0"/>
        <pt x="991" y="116" on="0"/>
        <pt x="755" y="-20" on="0"/>
        <pt x="606" y="-20" on="1"/>
        <pt x="453" y="-20" on="0"/>
        <pt x="224" y="104" on="0"/>
        <pt x="102" y="335" on="0"/>
        <pt x="102" y="485" on="1"/>
        <pt x="102" y="579" on="0"/>
        <pt x="147" y="749" on="0"/>
        <pt x="184" y="803" on="1"/>
        <pt x="371" y="803" on="1"/>
        <pt x="334" y="742" on="0"/>
        <pt x="287" y="573" on="0"/>
        <pt x="287" y="485" on="1"/>
        <pt x="287" y="336" on="0"/>
        <pt x="460" y="150" on="0"/>
        <pt x="610" y="150" on="1"/>
        <pt x="758" y="150" on="0"/>
        <pt x="940" y="339" on="0"/>
        <pt x="940" y="496" on="1"/>
        <pt x="940" y="621" on="0"/>
        <pt x="839" y="813" on="0"/>
        <pt x="700" y="930" on="1"/>
        <pt x="608" y="1005" on="0"/>
        <pt x="535" y="1133" on="0"/>
        <pt x="535" y="1231" on="1"/>
        <pt x="535" y="1462" on="1"/>
      </contour>
    </TTGlyph>
    <TTGlyph name="glyph00014" xMin="31" yMin="-20" xMax="1534" yMax="1483">
      <contour>
        <pt x="31" y="731" on="1"/>
        <pt x="782" y="1483" on="1"/>
        <pt x="1534" y="731" on="1"/>
        <pt x="782" y="-20" on="1"/>
        <pt x="662" y="100" on="1"/>
        <pt x="1292" y="731" on="1"/>
        <pt x="782" y="1241" on="1"/>
        <pt x="152" y="610" on="1"/>
      </contour>
    </TTGlyph>
    <TTGlyph name="glyph00015" xMin="78" yMin="0" xMax="1114" yMax="1462">
      <contour>
        <pt x="496" y="1462" on="1"/>
        <pt x="688" y="1462" on="1"/>
        <pt x="1114" y="944" on="1"/>
        <pt x="715" y="471" on="1"/>
        <pt x="1114" y="0" on="1"/>
        <pt x="891" y="0" on="1"/>
        <pt x="596" y="358" on="1"/>
        <pt x="301" y="0" on="1"/>
        <pt x="78" y="0" on="1"/>
        <pt x="477" y="471" on="1"/>
        <pt x="78" y="944" on="1"/>
      </contour>
      <contour>
        <pt x="289" y="948" on="1"/>
        <pt x="596" y="586" on="1"/>
        <pt x="903" y="948" on="1"/>
        <pt x="592" y="1327" on="1"/>
      </contour>
    </TTGlyph>
    <TTGlyph name="glyph00016" xMin="31" yMin="0" xMax="1561" yMax="1483">
      <contour>
        <pt x="1561" y="686" on="1"/>
        <pt x="1454" y="578" on="1"/>
        <pt x="1212" y="825" on="1"/>
        <pt x="901" y="471" on="1"/>
        <pt x="1313" y="0" on="1"/>
        <pt x="1098" y="0" on="1"/>
        <pt x="795" y="348" on="1"/>
        <pt x="489" y="0" on="1"/>
        <pt x="274" y="0" on="1"/>
        <pt x="686" y="471" on="1"/>
        <pt x="379" y="823" on="1"/>
        <pt x="143" y="578" on="1"/>
        <pt x="31" y="686" on="1"/>
        <pt x="797" y="1483" on="1"/>
      </contour>
      <contour>
        <pt x="492" y="942" on="1"/>
        <pt x="795" y="594" on="1"/>
        <pt x="1100" y="942" on="1"/>
        <pt x="797" y="1257" on="1"/>
      </contour>
    </TTGlyph>
    <TTGlyph name="glyph00017" xMin="82" yMin="0" xMax="1425" yMax="1475">
      <contour>
        <pt x="907" y="981" on="1"/>
        <pt x="907" y="1234" on="0"/>
        <pt x="1329" y="1475" on="1"/>
        <pt x="1425" y="1341" on="1"/>
        <pt x="1257" y="1245" on="0"/>
        <pt x="1090" y="1058" on="0"/>
        <pt x="1090" y="981" on="1"/>
        <pt x="1090" y="896" on="0"/>
        <pt x="1261" y="707" on="0"/>
        <pt x="1425" y="618" on="1"/>
        <pt x="1329" y="485" on="1"/>
        <pt x="1113" y="615" on="0"/>
        <pt x="907" y="859" on="0"/>
      </contour>
      <contour>
        <pt x="662" y="768" on="1"/>
        <pt x="844" y="768" on="1"/>
        <pt x="844" y="0" on="1"/>
        <pt x="662" y="0" on="1"/>
      </contour>
      <contour>
        <pt x="600" y="981" on="1"/>
        <pt x="600" y="860" on="0"/>
        <pt x="395" y="616" on="0"/>
        <pt x="178" y="485" on="1"/>
        <pt x="82" y="618" on="1"/>
        <pt x="255" y="712" on="0"/>
        <pt x="418" y="901" on="0"/>
        <pt x="418" y="981" on="1"/>
        <pt x="418" y="1058" on="0"/>
        <pt x="250" y="1245" on="0"/>
        <pt x="82" y="1341" on="1"/>
        <pt x="178" y="1475" on="1"/>
        <pt x="600" y="1231" on="0"/>
      </contour>
    </TTGlyph>
    <TTGlyph name="glyph00018" xMin="174" yMin="0" xMax="1292" yMax="1462">
      <contour>
        <pt x="641" y="768" on="1"/>
        <pt x="825" y="768" on="1"/>
        <pt x="825" y="0" on="1"/>
        <pt x="641" y="0" on="1"/>
      </contour>
      <contour>
        <pt x="174" y="1462" on="1"/>
        <pt x="358" y="1462" on="1"/>
        <pt x="358" y="694" on="1"/>
        <pt x="174" y="694" on="1"/>
      </contour>
      <contour>
        <pt x="1108" y="1462" on="1"/>
        <pt x="1292" y="1462" on="1"/>
        <pt x="1292" y="694" on="1"/>
        <pt x="1108" y="694" on="1"/>
      </contour>
    </TTGlyph>
    <TTGlyph name="glyph00019" xMin="102" yMin="-18" xMax="993" yMax="1497">
      <contour>
        <pt x="102" y="760" on="1"/>
        <pt x="102" y="983" on="0"/>
        <pt x="358" y="1335" on="0"/>
        <pt x="637" y="1497" on="1"/>
        <pt x="993" y="1204" on="1"/>
        <pt x="885" y="1077" on="1"/>
        <pt x="618" y="1294" on="1"/>
        <pt x="432" y="1170" on="0"/>
        <pt x="350" y="1034" on="1"/>
        <pt x="920" y="657" on="1"/>
        <pt x="815" y="520" on="1"/>
        <pt x="291" y="872" on="1"/>
        <pt x="283" y="829" on="0"/>
        <pt x="283" y="760" on="1"/>
        <pt x="283" y="579" on="0"/>
        <pt x="534" y="249" on="0"/>
        <pt x="776" y="115" on="1"/>
        <pt x="678" y="-18" on="1"/>
        <pt x="395" y="147" on="0"/>
        <pt x="102" y="540" on="0"/>
      </contour>
    </TTGlyph>
    <TTGlyph name="glyph00020" xMin="51" yMin="-29" xMax="1120" yMax="1483">
      <contour>
        <pt x="784" y="1483" on="1"/>
        <pt x="1120" y="1147" on="1"/>
        <pt x="991" y="1024" on="1"/>
        <pt x="784" y="1229" on="1"/>
        <pt x="610" y="1022" on="1"/>
        <pt x="610" y="580" on="1"/>
        <pt x="985" y="63" on="1"/>
        <pt x="836" y="-29" on="1"/>
        <pt x="518" y="414" on="1"/>
        <pt x="201" y="-29" on="1"/>
        <pt x="51" y="63" on="1"/>
        <pt x="426" y="580" on="1"/>
        <pt x="426" y="1075" on="1"/>
      </contour>
    </TTGlyph>
    <TTGlyph name="glyph00021" xMin="41" yMin="-68" xMax="1227" yMax="1511">
      <contour>
        <pt x="981" y="369" on="1"/>
        <pt x="981" y="377" on="1"/>
        <pt x="629" y="707" on="1"/>
        <pt x="629" y="717" on="1"/>
        <pt x="981" y="1085" on="1"/>
        <pt x="981" y="1094" on="1"/>
        <pt x="700" y="1397" on="1"/>
        <pt x="844" y="1511" on="1"/>
        <pt x="1227" y="1094" on="1"/>
        <pt x="1227" y="1085" on="1"/>
        <pt x="879" y="717" on="1"/>
        <pt x="879" y="709" on="1"/>
        <pt x="1227" y="377" on="1"/>
        <pt x="1227" y="369" on="1"/>
        <pt x="778" y="-68" on="1"/>
        <pt x="659" y="61" on="1"/>
      </contour>
      <contour>
        <pt x="393" y="369" on="1"/>
        <pt x="393" y="377" on="1"/>
        <pt x="41" y="707" on="1"/>
        <pt x="41" y="717" on="1"/>
        <pt x="393" y="1085" on="1"/>
        <pt x="393" y="1094" on="1"/>
        <pt x="113" y="1397" on="1"/>
        <pt x="256" y="1511" on="1"/>
        <pt x="639" y="1094" on="1"/>
        <pt x="639" y="1085" on="1"/>
        <pt x="291" y="717" on="1"/>
        <pt x="291" y="709" on="1"/>
        <pt x="639" y="377" on="1"/>
        <pt x="639" y="369" on="1"/>
        <pt x="190" y="-68" on="1"/>
        <pt x="72" y="61" on="1"/>
      </contour>
    </TTGlyph>
    <TTGlyph name="glyph00022" xMin="41" yMin="-49" xMax="1352" yMax="1511">
      <contour>
        <pt x="629" y="481" on="1"/>
        <pt x="629" y="492" on="1"/>
        <pt x="1106" y="985" on="1"/>
        <pt x="1106" y="993" on="1"/>
        <pt x="709" y="1397" on="1"/>
        <pt x="852" y="1511" on="1"/>
        <pt x="1352" y="993" on="1"/>
        <pt x="1352" y="985" on="1"/>
        <pt x="879" y="492" on="1"/>
        <pt x="879" y="483" on="1"/>
        <pt x="1303" y="76" on="1"/>
        <pt x="1184" y="-49" on="1"/>
      </contour>
      <contour>
        <pt x="41" y="481" on="1"/>
        <pt x="41" y="492" on="1"/>
        <pt x="518" y="985" on="1"/>
        <pt x="518" y="993" on="1"/>
        <pt x="121" y="1397" on="1"/>
        <pt x="264" y="1511" on="1"/>
        <pt x="764" y="993" on="1"/>
        <pt x="764" y="985" on="1"/>
        <pt x="291" y="492" on="1"/>
        <pt x="291" y="483" on="1"/>
        <pt x="715" y="76" on="1"/>
        <pt x="596" y="-49" on="1"/>
      </contour>
    </TTGlyph>
    <TTGlyph name="glyph00023" xMin="8" yMin="0" xMax="1192" yMax="1462">
      <contour>
        <pt x="1192" y="0" on="1"/>
        <pt x="983" y="0" on="1"/>
        <pt x="596" y="635" on="1"/>
        <pt x="203" y="0" on="1"/>
        <pt x="8" y="0" on="1"/>
        <pt x="494" y="762" on="1"/>
        <pt x="39" y="1462" on="1"/>
        <pt x="244" y="1462" on="1"/>
        <pt x="602" y="889" on="1"/>
        <pt x="963" y="1462" on="1"/>
        <pt x="1157" y="1462" on="1"/>
        <pt x="705" y="766" on="1"/>
      </contour>
    </TTGlyph>
    <TTGlyph name="glyph00024" xMin="154" yMin="0" xMax="1456" yMax="1462">
      <contour>
        <pt x="1456" y="647" on="1"/>
        <pt x="897" y="647" on="1"/>
        <pt x="897" y="0" on="1"/>
        <pt x="713" y="0" on="1"/>
        <pt x="713" y="647" on="1"/>
        <pt x="338" y="647" on="1"/>
        <pt x="338" y="0" on="1"/>
        <pt x="154" y="0" on="1"/>
        <pt x="154" y="819" on="1"/>
        <pt x="713" y="819" on="1"/>
        <pt x="713" y="1462" on="1"/>
        <pt x="897" y="1462" on="1"/>
        <pt x="897" y="819" on="1"/>
        <pt x="1272" y="819" on="1"/>
        <pt x="1272" y="1462" on="1"/>
        <pt x="1456" y="1462" on="1"/>
      </contour>
    </TTGlyph>
    <TTGlyph name="glyph00025" xMin="154" yMin="0" xMax="1456" yMax="1462">
      <contour>
        <pt x="1456" y="0" on="1"/>
        <pt x="1272" y="0" on="1"/>
        <pt x="1272" y="643" on="1"/>
        <pt x="897" y="643" on="1"/>
        <pt x="897" y="0" on="1"/>
        <pt x="713" y="0" on="1"/>
        <pt x="713" y="643" on="1"/>
        <pt x="154" y="643" on="1"/>
        <pt x="154" y="1462" on="1"/>
        <pt x="338" y="1462" on="1"/>
        <pt x="338" y="815" on="1"/>
        <pt x="713" y="815" on="1"/>
        <pt x="713" y="1462" on="1"/>
        <pt x="897" y="1462" on="1"/>
        <pt x="897" y="815" on="1"/>
        <pt x="1456" y="815" on="1"/>
      </contour>
    </TTGlyph>
    <TTGlyph name="glyph00026" xMin="205" yMin="-12" xMax="1087" yMax="1483">
      <contour>
        <pt x="1087" y="739" on="1"/>
        <pt x="1087" y="529" on="0"/>
        <pt x="688" y="130" on="0"/>
        <pt x="338" y="-12" on="1"/>
        <pt x="205" y="47" on="1"/>
        <pt x="205" y="1417" on="1"/>
        <pt x="334" y="1483" on="1"/>
        <pt x="722" y="1326" on="0"/>
        <pt x="1087" y="957" on="0"/>
      </contour>
      <contour>
        <pt x="389" y="195" on="1"/>
        <pt x="539" y="260" on="0"/>
        <pt x="782" y="446" on="0"/>
        <pt x="903" y="641" on="0"/>
        <pt x="903" y="735" on="1"/>
        <pt x="903" y="886" on="0"/>
        <pt x="639" y="1161" on="0"/>
        <pt x="389" y="1274" on="1"/>
      </contour>
    </TTGlyph>
    <TTGlyph name="glyph00027" xMin="102" yMin="55" xMax="1468" yMax="1411">
      <contour>
        <pt x="1468" y="735" on="1"/>
        <pt x="1468" y="546" on="0"/>
        <pt x="1289" y="236" on="0"/>
        <pt x="967" y="55" on="0"/>
        <pt x="786" y="55" on="1"/>
        <pt x="596" y="55" on="0"/>
        <pt x="278" y="237" on="0"/>
        <pt x="102" y="545" on="0"/>
        <pt x="102" y="737" on="1"/>
        <pt x="102" y="924" on="0"/>
        <pt x="284" y="1235" on="0"/>
        <pt x="603" y="1411" on="0"/>
        <pt x="788" y="1411" on="1"/>
        <pt x="969" y="1411" on="0"/>
        <pt x="1285" y="1235" on="0"/>
        <pt x="1468" y="925" on="0"/>
      </contour>
      <contour>
        <pt x="289" y="735" on="1"/>
        <pt x="289" y="590" on="0"/>
        <pt x="419" y="354" on="0"/>
        <pt x="648" y="221" on="0"/>
        <pt x="786" y="221" on="1"/>
        <pt x="924" y="221" on="0"/>
        <pt x="1152" y="353" on="0"/>
        <pt x="1280" y="588" on="0"/>
        <pt x="1280" y="735" on="1"/>
        <pt x="1280" y="880" on="0"/>
        <pt x="1151" y="1116" on="0"/>
        <pt x="923" y="1247" on="0"/>
        <pt x="788" y="1247" on="1"/>
        <pt x="650" y="1247" on="0"/>
        <pt x="419" y="1114" on="0"/>
        <pt x="289" y="879" on="0"/>
      </contour>
    </TTGlyph>
    <TTGlyph name="glyph00028" xMin="102" yMin="0" xMax="1124" yMax="1483">
      <contour>
        <pt x="535" y="0" on="1"/>
        <pt x="535" y="231" on="1"/>
        <pt x="535" y="327" on="0"/>
        <pt x="609" y="453" on="0"/>
        <pt x="705" y="532" on="1"/>
        <pt x="831" y="638" on="0"/>
        <pt x="940" y="842" on="0"/>
        <pt x="940" y="963" on="1"/>
        <pt x="940" y="1123" on="0"/>
        <pt x="764" y="1313" on="0"/>
        <pt x="612" y="1313" on="1"/>
        <pt x="463" y="1313" on="0"/>
        <pt x="287" y="1126" on="0"/>
        <pt x="287" y="973" on="1"/>
        <pt x="287" y="887" on="0"/>
        <pt x="334" y="718" on="0"/>
        <pt x="371" y="659" on="1"/>
        <pt x="184" y="659" on="1"/>
        <pt x="146" y="712" on="0"/>
        <pt x="102" y="871" on="0"/>
        <pt x="102" y="967" on="1"/>
        <pt x="102" y="1201" on="0"/>
        <pt x="391" y="1483" on="0"/>
        <pt x="633" y="1483" on="1"/>
        <pt x="775" y="1483" on="0"/>
        <pt x="1001" y="1352" on="0"/>
        <pt x="1124" y="1126" on="0"/>
        <pt x="1124" y="995" on="1"/>
        <pt x="1124" y="871" on="0"/>
        <pt x="1057" y="667" on="0"/>
        <pt x="928" y="493" on="0"/>
        <pt x="807" y="393" on="1"/>
        <pt x="756" y="350" on="0"/>
        <pt x="719" y="274" on="0"/>
        <pt x="719" y="229" on="1"/>
        <pt x="719" y="0" on="1"/>
      </contour>
    </TTGlyph>
    <TTGlyph name="glyph00029" xMin="205" yMin="0" xMax="987" yMax="1481">
      <contour>
        <pt x="205" y="0" on="1"/>
        <pt x="205" y="1401" on="1"/>
        <pt x="328" y="1481" on="1"/>
        <pt x="987" y="1248" on="0"/>
        <pt x="987" y="924" on="1"/>
        <pt x="987" y="770" on="0"/>
        <pt x="693" y="503" on="0"/>
        <pt x="389" y="375" on="1"/>
        <pt x="389" y="0" on="1"/>
      </contour>
      <contour>
        <pt x="803" y="915" on="1"/>
        <pt x="803" y="1011" on="0"/>
        <pt x="588" y="1201" on="0"/>
        <pt x="389" y="1288" on="1"/>
        <pt x="389" y="549" on="1"/>
        <pt x="803" y="732" on="0"/>
      </contour>
    </TTGlyph>
    <TTGlyph name="glyph00030" xMin="41" yMin="0" xMax="774" yMax="1528">
      <contour>
        <pt x="590" y="1059" on="1"/>
        <pt x="41" y="1384" on="1"/>
        <pt x="141" y="1528" on="1"/>
        <pt x="774" y="1153" on="1"/>
        <pt x="774" y="0" on="1"/>
        <pt x="590" y="0" on="1"/>
        <pt x="590" y="535" on="1"/>
        <pt x="41" y="860" on="1"/>
        <pt x="141" y="1004" on="1"/>
        <pt x="590" y="735" on="1"/>
      </contour>
    </TTGlyph>
    <TTGlyph name="glyph00031" xMin="31" yMin="0" xMax="1083" yMax="1483">
      <contour>
        <pt x="152" y="1057" on="1"/>
        <pt x="557" y="672" on="1"/>
        <pt x="842" y="977" on="1"/>
        <pt x="436" y="1362" on="1"/>
        <pt x="557" y="1483" on="1"/>
        <pt x="1083" y="977" on="1"/>
        <pt x="649" y="522" on="1"/>
        <pt x="649" y="0" on="1"/>
        <pt x="465" y="0" on="1"/>
        <pt x="465" y="522" on="1"/>
        <pt x="31" y="936" on="1"/>
      </contour>
    </TTGlyph>
    <TTGlyph name="glyph00032" xMin="205" yMin="0" xMax="1092" yMax="1462">
      <contour>
        <pt x="907" y="631" on="1"/>
        <pt x="389" y="631" on="1"/>
        <pt x="389" y="0" on="1"/>
        <pt x="205" y="0" on="1"/>
        <pt x="205" y="1462" on="1"/>
        <pt x="1092" y="1462" on="1"/>
        <pt x="1092" y="1055" on="1"/>
        <pt x="907" y="1055" on="1"/>
        <pt x="907" y="1290" on="1"/>
        <pt x="389" y="1290" on="1"/>
        <pt x="389" y="803" on="1"/>
        <pt x="1092" y="803" on="1"/>
        <pt x="1092" y="0" on="1"/>
        <pt x="907" y="0" on="1"/>
      </contour>
    </TTGlyph>
    <TTGlyph name="glyph00033" xMin="205" yMin="-12" xMax="952" yMax="1483">
      <contour>
        <pt x="205" y="1417" on="1"/>
        <pt x="334" y="1483" on="1"/>
        <pt x="647" y="1400" on="0"/>
        <pt x="952" y="1195" on="0"/>
        <pt x="952" y="1067" on="1"/>
        <pt x="952" y="962" on="0"/>
        <pt x="809" y="803" on="0"/>
        <pt x="653" y="727" on="1"/>
        <pt x="793" y="675" on="0"/>
        <pt x="952" y="510" on="0"/>
        <pt x="952" y="418" on="1"/>
        <pt x="952" y="281" on="0"/>
        <pt x="637" y="62" on="0"/>
        <pt x="338" y="-12" on="1"/>
        <pt x="205" y="47" on="1"/>
      </contour>
      <contour>
        <pt x="389" y="160" on="1"/>
        <pt x="565" y="210" on="0"/>
        <pt x="768" y="347" on="0"/>
        <pt x="768" y="410" on="1"/>
        <pt x="768" y="474" on="0"/>
        <pt x="579" y="623" on="0"/>
        <pt x="389" y="692" on="1"/>
      </contour>
      <contour>
        <pt x="389" y="756" on="1"/>
        <pt x="599" y="840" on="0"/>
        <pt x="768" y="970" on="0"/>
        <pt x="768" y="1042" on="1"/>
        <pt x="768" y="1112" on="0"/>
        <pt x="572" y="1240" on="0"/>
        <pt x="389" y="1290" on="1"/>
      </contour>
    </TTGlyph>
    <TTGlyph name="glyph00034" xMin="41" yMin="0" xMax="774" yMax="1462">
      <contour>
        <pt x="774" y="1462" on="1"/>
        <pt x="774" y="0" on="1"/>
        <pt x="590" y="0" on="1"/>
        <pt x="41" y="387" on="1"/>
        <pt x="141" y="530" on="1"/>
        <pt x="590" y="209" on="1"/>
        <pt x="590" y="1462" on="1"/>
      </contour>
    </TTGlyph>
    <TTGlyph name="glyph00035" xMin="2" yMin="0" xMax="1225" yMax="1481">
      <contour>
        <pt x="2" y="1419" on="1"/>
        <pt x="176" y="1481" on="1"/>
        <pt x="520" y="524" on="1"/>
        <pt x="588" y="332" on="0"/>
        <pt x="614" y="205" on="1"/>
        <pt x="636" y="318" on="0"/>
        <pt x="709" y="528" on="1"/>
        <pt x="1049" y="1481" on="1"/>
        <pt x="1225" y="1419" on="1"/>
        <pt x="707" y="0" on="1"/>
        <pt x="522" y="0" on="1"/>
      </contour>
    </TTGlyph>
    <TTGlyph name="glyph00036" xMin="113" yMin="0" xMax="1047" yMax="1483">
      <contour>
        <pt x="580" y="1040" on="1"/>
        <pt x="897" y="1483" on="1"/>
        <pt x="1047" y="1391" on="1"/>
        <pt x="672" y="874" on="1"/>
        <pt x="672" y="0" on="1"/>
        <pt x="487" y="0" on="1"/>
        <pt x="487" y="874" on="1"/>
        <pt x="113" y="1391" on="1"/>
        <pt x="262" y="1483" on="1"/>
      </contour>
    </TTGlyph>
    <TTGlyph name="glyph00037" xMin="205" yMin="0" xMax="1337" yMax="1475">
      <contour>
        <pt x="764" y="858" on="1"/>
        <pt x="375" y="1196" on="1"/>
        <pt x="375" y="0" on="1"/>
        <pt x="205" y="0" on="1"/>
        <pt x="205" y="1454" on="1"/>
        <pt x="301" y="1475" on="1"/>
        <pt x="766" y="1075" on="1"/>
        <pt x="1241" y="1475" on="1"/>
        <pt x="1337" y="1454" on="1"/>
        <pt x="1337" y="0" on="1"/>
        <pt x="1155" y="0" on="1"/>
        <pt x="1155" y="1196" on="1"/>
      </contour>
    </TTGlyph>
    <TTGlyph name="glyph00038" xMin="94" yMin="-39" xMax="1577" yMax="1491">
      <contour>
        <pt x="780" y="-39" on="1"/>
        <pt x="672" y="68" on="1"/>
        <pt x="920" y="309" on="1"/>
        <pt x="565" y="621" on="1"/>
        <pt x="94" y="209" on="1"/>
        <pt x="94" y="424" on="1"/>
        <pt x="442" y="727" on="1"/>
        <pt x="94" y="1032" on="1"/>
        <pt x="94" y="1247" on="1"/>
        <pt x="565" y="836" on="1"/>
        <pt x="918" y="1143" on="1"/>
        <pt x="672" y="1378" on="1"/>
        <pt x="780" y="1491" on="1"/>
        <pt x="1577" y="725" on="1"/>
      </contour>
      <contour>
        <pt x="1036" y="1030" on="1"/>
        <pt x="688" y="727" on="1"/>
        <pt x="1036" y="422" on="1"/>
        <pt x="1352" y="725" on="1"/>
      </contour>
    </TTGlyph>
    <TTGlyph name="glyph00039" xMin="51" yMin="-18" xMax="786" yMax="1497">
      <contour>
        <pt x="786" y="739" on="1"/>
        <pt x="786" y="352" on="0"/>
        <pt x="150" y="-18" on="1"/>
        <pt x="53" y="127" on="1"/>
        <pt x="602" y="442" on="0"/>
        <pt x="602" y="739" on="1"/>
        <pt x="602" y="891" on="0"/>
        <pt x="319" y="1196" on="0"/>
        <pt x="51" y="1354" on="1"/>
        <pt x="150" y="1497" on="1"/>
        <pt x="484" y="1303" on="0"/>
        <pt x="786" y="935" on="0"/>
      </contour>
    </TTGlyph>
    <TTGlyph name="glyph00040" xMin="154" yMin="0" xMax="1493" yMax="1462">
      <contour>
        <pt x="731" y="0" on="1"/>
        <pt x="731" y="340" on="1"/>
        <pt x="338" y="586" on="1"/>
        <pt x="338" y="0" on="1"/>
        <pt x="154" y="0" on="1"/>
        <pt x="154" y="782" on="1"/>
        <pt x="338" y="782" on="1"/>
        <pt x="731" y="539" on="1"/>
        <pt x="731" y="1462" on="1"/>
        <pt x="915" y="1462" on="1"/>
        <pt x="915" y="1100" on="1"/>
        <pt x="1309" y="874" on="1"/>
        <pt x="1309" y="1462" on="1"/>
        <pt x="1493" y="1462" on="1"/>
        <pt x="1493" y="678" on="1"/>
        <pt x="1309" y="678" on="1"/>
        <pt x="915" y="901" on="1"/>
        <pt x="915" y="0" on="1"/>
      </contour>
    </TTGlyph>
    <TTGlyph name="glyph00041" xMin="154" yMin="0" xMax="1714" yMax="1462">
      <contour>
        <pt x="842" y="1462" on="1"/>
        <pt x="1026" y="1462" on="1"/>
        <pt x="1530" y="903" on="1"/>
        <pt x="1530" y="1462" on="1"/>
        <pt x="1714" y="1462" on="1"/>
        <pt x="1714" y="637" on="1"/>
        <pt x="1530" y="637" on="1"/>
        <pt x="1026" y="1204" on="1"/>
        <pt x="1026" y="0" on="1"/>
        <pt x="842" y="0" on="1"/>
        <pt x="338" y="559" on="1"/>
        <pt x="338" y="0" on="1"/>
        <pt x="154" y="0" on="1"/>
        <pt x="154" y="825" on="1"/>
        <pt x="338" y="825" on="1"/>
        <pt x="842" y="258" on="1"/>
      </contour>
    </TTGlyph>
    <TTGlyph name="glyph00042" xMin="143" yMin="55" xMax="1509" yMax="1245">
      <contour>
        <pt x="1286" y="1239" on="1"/>
        <pt x="1394" y="1142" on="0"/>
        <pt x="1509" y="883" on="0"/>
        <pt x="1509" y="735" on="1"/>
        <pt x="1509" y="546" on="0"/>
        <pt x="1330" y="236" on="0"/>
        <pt x="1008" y="55" on="0"/>
        <pt x="827" y="55" on="1"/>
        <pt x="637" y="55" on="0"/>
        <pt x="319" y="237" on="0"/>
        <pt x="143" y="545" on="0"/>
        <pt x="143" y="737" on="1"/>
        <pt x="143" y="888" on="0"/>
        <pt x="261" y="1150" on="0"/>
        <pt x="373" y="1245" on="1"/>
        <pt x="496" y="1124" on="1"/>
        <pt x="418" y="1056" on="0"/>
        <pt x="330" y="857" on="0"/>
        <pt x="330" y="735" on="1"/>
        <pt x="330" y="590" on="0"/>
        <pt x="460" y="354" on="0"/>
        <pt x="689" y="221" on="0"/>
        <pt x="827" y="221" on="1"/>
        <pt x="965" y="221" on="0"/>
        <pt x="1193" y="353" on="0"/>
        <pt x="1321" y="588" on="0"/>
        <pt x="1321" y="735" on="1"/>
        <pt x="1321" y="853" on="0"/>
        <pt x="1239" y="1046" on="0"/>
        <pt x="1167" y="1114" on="1"/>
      </contour>
      <contour>
        <pt x="723" y="549" on="1"/>
        <pt x="723" y="604" on="0"/>
        <pt x="787" y="655" on="0"/>
        <pt x="834" y="655" on="1"/>
        <pt x="884" y="655" on="0"/>
        <pt x="942" y="598" on="0"/>
        <pt x="942" y="549" on="1"/>
        <pt x="942" y="499" on="0"/>
        <pt x="881" y="442" on="0"/>
        <pt x="834" y="442" on="1"/>
        <pt x="787" y="442" on="0"/>
        <pt x="723" y="493" on="0"/>
      </contour>
      <contour>
        <pt x="555" y="840" on="1"/>
        <pt x="555" y="895" on="0"/>
        <pt x="619" y="946" on="0"/>
        <pt x="664" y="946" on="1"/>
        <pt x="712" y="946" on="0"/>
        <pt x="772" y="888" on="0"/>
        <pt x="772" y="840" on="1"/>
        <pt x="772" y="791" on="0"/>
        <pt x="713" y="731" on="0"/>
        <pt x="664" y="731" on="1"/>
        <pt x="619" y="731" on="0"/>
        <pt x="555" y="784" on="0"/>
      </contour>
      <contour>
        <pt x="893" y="850" on="1"/>
        <pt x="893" y="905" on="0"/>
        <pt x="957" y="956" on="0"/>
        <pt x="1004" y="956" on="1"/>
        <pt x="1054" y="956" on="0"/>
        <pt x="1110" y="897" on="0"/>
        <pt x="1110" y="850" on="1"/>
        <pt x="1110" y="803" on="0"/>
        <pt x="1053" y="743" on="0"/>
        <pt x="1004" y="743" on="1"/>
        <pt x="957" y="743" on="0"/>
        <pt x="893" y="796" on="0"/>
      </contour>
    </TTGlyph>
    <TTGlyph name="glyph00043" xMin="143" yMin="55" xMax="1509" yMax="1411">
      <contour>
        <pt x="1509" y="735" on="1"/>
        <pt x="1509" y="546" on="0"/>
        <pt x="1330" y="236" on="0"/>
        <pt x="1008" y="55" on="0"/>
        <pt x="827" y="55" on="1"/>
        <pt x="637" y="55" on="0"/>
        <pt x="319" y="237" on="0"/>
        <pt x="143" y="545" on="0"/>
        <pt x="143" y="737" on="1"/>
        <pt x="143" y="924" on="0"/>
        <pt x="325" y="1235" on="0"/>
        <pt x="644" y="1411" on="0"/>
        <pt x="829" y="1411" on="1"/>
        <pt x="1010" y="1411" on="0"/>
        <pt x="1326" y="1235" on="0"/>
        <pt x="1509" y="925" on="0"/>
      </contour>
      <contour>
        <pt x="330" y="735" on="1"/>
        <pt x="330" y="590" on="0"/>
        <pt x="460" y="354" on="0"/>
        <pt x="689" y="221" on="0"/>
        <pt x="827" y="221" on="1"/>
        <pt x="965" y="221" on="0"/>
        <pt x="1193" y="353" on="0"/>
        <pt x="1321" y="588" on="0"/>
        <pt x="1321" y="735" on="1"/>
        <pt x="1321" y="880" on="0"/>
        <pt x="1192" y="1116" on="0"/>
        <pt x="964" y="1247" on="0"/>
        <pt x="829" y="1247" on="1"/>
        <pt x="691" y="1247" on="0"/>
        <pt x="460" y="1114" on="0"/>
        <pt x="330" y="879" on="0"/>
      </contour>
      <contour>
        <pt x="727" y="735" on="1"/>
        <pt x="727" y="795" on="0"/>
        <pt x="789" y="850" on="0"/>
        <pt x="834" y="850" on="1"/>
        <pt x="882" y="850" on="0"/>
        <pt x="938" y="788" on="0"/>
        <pt x="938" y="735" on="1"/>
        <pt x="938" y="682" on="0"/>
        <pt x="879" y="621" on="0"/>
        <pt x="834" y="621" on="1"/>
        <pt x="789" y="621" on="0"/>
        <pt x="727" y="676" on="0"/>
      </contour>
    </TTGlyph>
    <TTGlyph name="glyph00044" xMin="164" yMin="0" xMax="786" yMax="1462">
      <contour>
        <pt x="512" y="934" on="1"/>
        <pt x="338" y="1030" on="0"/>
        <pt x="164" y="1255" on="0"/>
        <pt x="164" y="1391" on="1"/>
        <pt x="164" y="1462" on="1"/>
        <pt x="348" y="1462" on="1"/>
        <pt x="348" y="1403" on="1"/>
        <pt x="348" y="1286" on="0"/>
        <pt x="541" y="1082" on="0"/>
        <pt x="786" y="946" on="1"/>
        <pt x="489" y="731" on="1"/>
        <pt x="786" y="516" on="1"/>
        <pt x="541" y="380" on="0"/>
        <pt x="348" y="175" on="0"/>
        <pt x="348" y="59" on="1"/>
        <pt x="348" y="0" on="1"/>
        <pt x="164" y="0" on="1"/>
        <pt x="164" y="72" on="1"/>
        <pt x="164" y="209" on="0"/>
        <pt x="338" y="431" on="0"/>
        <pt x="512" y="528" on="1"/>
        <pt x="238" y="731" on="1"/>
      </contour>
    </TTGlyph>
    <TTGlyph name="glyph00045" xMin="92" yMin="-41" xMax="834" yMax="1503">
      <contour>
        <pt x="182" y="1374" on="1"/>
        <pt x="307" y="1503" on="1"/>
        <pt x="834" y="975" on="1"/>
        <pt x="346" y="487" on="1"/>
        <pt x="752" y="82" on="1"/>
        <pt x="623" y="-41" on="1"/>
        <pt x="92" y="487" on="1"/>
        <pt x="582" y="975" on="1"/>
      </contour>
    </TTGlyph>
    <TTGlyph name="glyph00046" xMin="102" yMin="-35" xMax="750" yMax="1493">
      <contour>
        <pt x="397" y="971" on="1"/>
        <pt x="474" y="926" on="0"/>
        <pt x="557" y="854" on="1"/>
        <pt x="575" y="888" on="0"/>
        <pt x="575" y="930" on="1"/>
        <pt x="575" y="1045" on="0"/>
        <pt x="330" y="1253" on="0"/>
        <pt x="102" y="1343" on="1"/>
        <pt x="176" y="1493" on="1"/>
        <pt x="750" y="1248" on="0"/>
        <pt x="750" y="930" on="1"/>
        <pt x="750" y="846" on="0"/>
        <pt x="674" y="727" on="1"/>
        <pt x="750" y="611" on="0"/>
        <pt x="750" y="524" on="1"/>
        <pt x="750" y="206" on="0"/>
        <pt x="176" y="-35" on="1"/>
        <pt x="102" y="113" on="1"/>
        <pt x="575" y="299" on="0"/>
        <pt x="575" y="524" on="1"/>
        <pt x="575" y="554" on="0"/>
        <pt x="555" y="592" on="1"/>
        <pt x="498" y="545" on="0"/>
        <pt x="387" y="479" on="1"/>
        <pt x="309" y="621" on="1"/>
        <pt x="436" y="694" on="0"/>
        <pt x="471" y="727" on="1"/>
        <pt x="435" y="761" on="0"/>
        <pt x="313" y="831" on="1"/>
      </contour>
    </TTGlyph>
    <TTGlyph name="glyph00047" xMin="123" yMin="-35" xMax="770" yMax="1493">
      <contour>
        <pt x="475" y="487" on="1"/>
        <pt x="398" y="532" on="0"/>
        <pt x="315" y="604" on="1"/>
        <pt x="297" y="570" on="0"/>
        <pt x="297" y="528" on="1"/>
        <pt x="297" y="413" on="0"/>
        <pt x="542" y="205" on="0"/>
        <pt x="770" y="115" on="1"/>
        <pt x="696" y="-35" on="1"/>
        <pt x="123" y="207" on="0"/>
        <pt x="123" y="528" on="1"/>
        <pt x="123" y="615" on="0"/>
        <pt x="199" y="731" on="1"/>
        <pt x="123" y="850" on="0"/>
        <pt x="123" y="934" on="1"/>
        <pt x="123" y="1252" on="0"/>
        <pt x="696" y="1493" on="1"/>
        <pt x="770" y="1346" on="1"/>
        <pt x="297" y="1160" on="0"/>
        <pt x="297" y="934" on="1"/>
        <pt x="297" y="904" on="0"/>
        <pt x="317" y="866" on="1"/>
        <pt x="367" y="907" on="0"/>
        <pt x="485" y="979" on="1"/>
        <pt x="563" y="838" on="1"/>
        <pt x="439" y="766" on="0"/>
        <pt x="401" y="731" on="1"/>
        <pt x="437" y="697" on="0"/>
        <pt x="559" y="627" on="1"/>
      </contour>
    </TTGlyph>
    <TTGlyph name="glyph00048" xMin="31" yMin="-20" xMax="1534" yMax="1483">
      <contour>
        <pt x="1534" y="731" on="1"/>
        <pt x="782" y="-20" on="1"/>
        <pt x="31" y="731" on="1"/>
        <pt x="782" y="1483" on="1"/>
      </contour>
      <contour>
        <pt x="782" y="1241" on="1"/>
        <pt x="272" y="731" on="1"/>
        <pt x="782" y="221" on="1"/>
        <pt x="1292" y="731" on="1"/>
      </contour>
      <contour>
        <pt x="676" y="731" on="1"/>
        <pt x="676" y="791" on="0"/>
        <pt x="737" y="846" on="0"/>
        <pt x="782" y="846" on="1"/>
        <pt x="824" y="846" on="0"/>
        <pt x="887" y="791" on="0"/>
        <pt x="887" y="731" on="1"/>
        <pt x="887" y="672" on="0"/>
        <pt x="824" y="616" on="0"/>
        <pt x="782" y="616" on="1"/>
        <pt x="737" y="616" on="0"/>
        <pt x="676" y="672" on="0"/>
      </contour>
    </TTGlyph>
    <TTGlyph name="glyph00049" xMin="41" yMin="0" xMax="774" yMax="1462">
      <contour>
        <pt x="590" y="535" on="1"/>
        <pt x="41" y="922" on="1"/>
        <pt x="141" y="1065" on="1"/>
        <pt x="590" y="743" on="1"/>
        <pt x="590" y="1462" on="1"/>
        <pt x="774" y="1462" on="1"/>
        <pt x="774" y="0" on="1"/>
        <pt x="590" y="0" on="1"/>
      </contour>
    </TTGlyph>
    <TTGlyph name="glyph00050" xMin="205" yMin="0" xMax="938" yMax="1462">
      <contour>
        <pt x="389" y="0" on="1"/>
        <pt x="205" y="0" on="1"/>
        <pt x="205" y="1462" on="1"/>
        <pt x="389" y="1462" on="1"/>
        <pt x="389" y="743" on="1"/>
        <pt x="838" y="1065" on="1"/>
        <pt x="938" y="922" on="1"/>
        <pt x="389" y="535" on="1"/>
      </contour>
    </TTGlyph>
    <TTGlyph name="glyph00051" xMin="41" yMin="0" xMax="774" yMax="1462">
      <contour>
        <pt x="590" y="0" on="1"/>
        <pt x="590" y="1253" on="1"/>
        <pt x="141" y="932" on="1"/>
        <pt x="41" y="1075" on="1"/>
        <pt x="590" y="1462" on="1"/>
        <pt x="774" y="1462" on="1"/>
        <pt x="774" y="0" on="1"/>
      </contour>
    </TTGlyph>
    <TTGlyph name="glyph00052" xMin="205" yMin="0" xMax="1092" yMax="1462">
      <contour>
        <pt x="907" y="578" on="1"/>
        <pt x="389" y="414" on="1"/>
        <pt x="389" y="0" on="1"/>
        <pt x="205" y="0" on="1"/>
        <pt x="205" y="1462" on="1"/>
        <pt x="389" y="1462" on="1"/>
        <pt x="389" y="1243" on="1"/>
        <pt x="1092" y="1462" on="1"/>
        <pt x="1092" y="1055" on="1"/>
        <pt x="907" y="1055" on="1"/>
        <pt x="907" y="1237" on="1"/>
        <pt x="389" y="1073" on="1"/>
        <pt x="389" y="586" on="1"/>
        <pt x="1092" y="803" on="1"/>
        <pt x="1092" y="0" on="1"/>
        <pt x="907" y="0" on="1"/>
      </contour>
    </TTGlyph>
    <TTGlyph name="glyph00053" xMin="27" yMin="0" xMax="1214" yMax="1477">
      <contour>
        <pt x="713" y="0" on="1"/>
        <pt x="528" y="0" on="1"/>
        <pt x="528" y="709" on="1"/>
        <pt x="27" y="1376" on="1"/>
        <pt x="160" y="1477" on="1"/>
        <pt x="528" y="985" on="1"/>
        <pt x="528" y="1462" on="1"/>
        <pt x="713" y="1462" on="1"/>
        <pt x="713" y="985" on="1"/>
        <pt x="1081" y="1477" on="1"/>
        <pt x="1214" y="1376" on="1"/>
        <pt x="713" y="709" on="1"/>
      </contour>
    </TTGlyph>
    <TTGlyph name="glyph00054" xMin="113" yMin="0" xMax="1047" yMax="1483">
      <contour>
        <pt x="580" y="442" on="1"/>
        <pt x="262" y="0" on="1"/>
        <pt x="113" y="92" on="1"/>
        <pt x="487" y="608" on="1"/>
        <pt x="487" y="1483" on="1"/>
        <pt x="672" y="1483" on="1"/>
        <pt x="672" y="608" on="1"/>
        <pt x="1047" y="92" on="1"/>
        <pt x="897" y="0" on="1"/>
      </contour>
    </TTGlyph>
    <TTGlyph name="glyph00055" xMin="-70" yMin="0" xMax="1047" yMax="1462">
      <contour>
        <pt x="592" y="465" on="1"/>
        <pt x="262" y="0" on="1"/>
        <pt x="113" y="92" on="1"/>
        <pt x="489" y="614" on="1"/>
        <pt x="-70" y="1462" on="1"/>
        <pt x="154" y="1462" on="1"/>
        <pt x="1047" y="92" on="1"/>
        <pt x="897" y="0" on="1"/>
      </contour>
    </TTGlyph>
    <TTGlyph name="glyph00056" xMin="123" yMin="0" xMax="1036" yMax="1462">
      <contour>
        <pt x="289" y="932" on="1"/>
        <pt x="852" y="608" on="1"/>
        <pt x="852" y="1462" on="1"/>
        <pt x="1036" y="1462" on="1"/>
        <pt x="1036" y="0" on="1"/>
        <pt x="852" y="0" on="1"/>
        <pt x="852" y="420" on="1"/>
        <pt x="401" y="682" on="1"/>
        <pt x="436" y="583" on="0"/>
        <pt x="436" y="430" on="1"/>
        <pt x="436" y="321" on="0"/>
        <pt x="380" y="113" on="0"/>
        <pt x="317" y="0" on="1"/>
        <pt x="123" y="0" on="1"/>
        <pt x="258" y="214" on="0"/>
        <pt x="258" y="440" on="1"/>
        <pt x="258" y="644" on="0"/>
        <pt x="178" y="840" on="1"/>
      </contour>
    </TTGlyph>
    <TTGlyph name="glyph00057" xMin="205" yMin="0" xMax="1343" yMax="1462">
      <contour>
        <pt x="205" y="1462" on="1"/>
        <pt x="389" y="1462" on="1"/>
        <pt x="1159" y="657" on="1"/>
        <pt x="1159" y="1462" on="1"/>
        <pt x="1343" y="1462" on="1"/>
        <pt x="1343" y="391" on="1"/>
        <pt x="1159" y="391" on="1"/>
        <pt x="389" y="1204" on="1"/>
        <pt x="389" y="0" on="1"/>
        <pt x="205" y="0" on="1"/>
      </contour>
    </TTGlyph>
    <TTGlyph name="glyph00058" xMin="82" yMin="0" xMax="1028" yMax="1462">
      <contour>
        <pt x="844" y="1462" on="1"/>
        <pt x="1028" y="1462" on="1"/>
        <pt x="1028" y="0" on="1"/>
        <pt x="844" y="0" on="1"/>
        <pt x="82" y="635" on="1"/>
        <pt x="82" y="817" on="1"/>
      </contour>
      <contour>
        <pt x="844" y="229" on="1"/>
        <pt x="844" y="1239" on="1"/>
        <pt x="252" y="731" on="1"/>
      </contour>
    </TTGlyph>
    <TTGlyph name="glyph00059" xMin="205" yMin="0" xMax="1151" yMax="1462">
      <contour>
        <pt x="1151" y="817" on="1"/>
        <pt x="1151" y="635" on="1"/>
        <pt x="389" y="0" on="1"/>
        <pt x="205" y="0" on="1"/>
        <pt x="205" y="1462" on="1"/>
        <pt x="389" y="1462" on="1"/>
      </contour>
      <contour>
        <pt x="981" y="731" on="1"/>
        <pt x="389" y="1239" on="1"/>
        <pt x="389" y="229" on="1"/>
      </contour>
    </TTGlyph>
    <TTGlyph name="glyph00060" xMin="31" yMin="0" xMax="1235" yMax="1462">
      <contour>
        <pt x="567" y="0" on="1"/>
        <pt x="430" y="412" on="0"/>
        <pt x="31" y="432" on="1"/>
        <pt x="31" y="600" on="1"/>
        <pt x="368" y="584" on="0"/>
        <pt x="541" y="367" on="1"/>
        <pt x="541" y="1462" on="1"/>
        <pt x="725" y="1462" on="1"/>
        <pt x="725" y="367" on="1"/>
        <pt x="807" y="473" on="0"/>
        <pt x="1067" y="592" on="0"/>
        <pt x="1235" y="600" on="1"/>
        <pt x="1235" y="432" on="1"/>
        <pt x="1039" y="422" on="0"/>
        <pt x="772" y="213" on="0"/>
        <pt x="698" y="0" on="1"/>
      </contour>
    </TTGlyph>
    <TTGlyph name="glyph00061" xMin="31" yMin="0" xMax="1235" yMax="1462">
      <contour>
        <pt x="698" y="1462" on="1"/>
        <pt x="772" y="1249" on="0"/>
        <pt x="1042" y="1040" on="0"/>
        <pt x="1235" y="1030" on="1"/>
        <pt x="1235" y="862" on="1"/>
        <pt x="887" y="882" on="0"/>
        <pt x="725" y="1096" on="1"/>
        <pt x="725" y="0" on="1"/>
        <pt x="541" y="0" on="1"/>
        <pt x="541" y="1096" on="1"/>
        <pt x="374" y="882" on="0"/>
        <pt x="31" y="862" on="1"/>
        <pt x="31" y="1030" on="1"/>
        <pt x="430" y="1050" on="0"/>
        <pt x="567" y="1462" on="1"/>
      </contour>
    </TTGlyph>
    <TTGlyph name="glyph00062" xMin="123" yMin="0" xMax="1036" yMax="1462">
      <contour>
        <pt x="178" y="623" on="1"/>
        <pt x="258" y="817" on="0"/>
        <pt x="258" y="1022" on="1"/>
        <pt x="258" y="1248" on="0"/>
        <pt x="123" y="1462" on="1"/>
        <pt x="317" y="1462" on="1"/>
        <pt x="371" y="1364" on="0"/>
        <pt x="436" y="1156" on="0"/>
        <pt x="436" y="1032" on="1"/>
        <pt x="436" y="879" on="0"/>
        <pt x="401" y="780" on="1"/>
        <pt x="852" y="1042" on="1"/>
        <pt x="852" y="1462" on="1"/>
        <pt x="1036" y="1462" on="1"/>
        <pt x="1036" y="0" on="1"/>
        <pt x="852" y="0" on="1"/>
        <pt x="852" y="854" on="1"/>
        <pt x="289" y="530" on="1"/>
      </contour>
    </TTGlyph>
    <TTGlyph name="glyph00063" xMin="154" yMin="0" xMax="1026" yMax="1462">
      <contour>
        <pt x="1026" y="0" on="1"/>
        <pt x="842" y="0" on="1"/>
        <pt x="842" y="1204" on="1"/>
        <pt x="338" y="637" on="1"/>
        <pt x="154" y="637" on="1"/>
        <pt x="154" y="1462" on="1"/>
        <pt x="338" y="1462" on="1"/>
        <pt x="338" y="903" on="1"/>
        <pt x="842" y="1462" on="1"/>
        <pt x="1026" y="1462" on="1"/>
      </contour>
    </TTGlyph>
    <TTGlyph name="glyph00064" xMin="31" yMin="0" xMax="1235" yMax="1483">
      <contour>
        <pt x="541" y="1022" on="1"/>
        <pt x="367" y="1229" on="1"/>
        <pt x="160" y="1024" on="1"/>
        <pt x="31" y="1147" on="1"/>
        <pt x="367" y="1483" on="1"/>
        <pt x="633" y="1180" on="1"/>
        <pt x="899" y="1483" on="1"/>
        <pt x="1235" y="1147" on="1"/>
        <pt x="1106" y="1024" on="1"/>
        <pt x="899" y="1229" on="1"/>
        <pt x="725" y="1022" on="1"/>
        <pt x="725" y="0" on="1"/>
        <pt x="541" y="0" on="1"/>
      </contour>
    </TTGlyph>
    <TTGlyph name="glyph00065" xMin="92" yMin="0" xMax="928" yMax="1483">
      <contour>
        <pt x="928" y="1171" on="1"/>
        <pt x="848" y="1171" on="0"/>
        <pt x="741" y="1081" on="0"/>
        <pt x="656" y="886" on="0"/>
        <pt x="618" y="715" on="1"/>
        <pt x="670" y="676" on="0"/>
        <pt x="779" y="592" on="0"/>
        <pt x="866" y="487" on="0"/>
        <pt x="922" y="354" on="0"/>
        <pt x="922" y="266" on="1"/>
        <pt x="922" y="204" on="0"/>
        <pt x="883" y="62" on="0"/>
        <pt x="850" y="0" on="1"/>
        <pt x="666" y="0" on="1"/>
        <pt x="739" y="135" on="0"/>
        <pt x="739" y="248" on="1"/>
        <pt x="739" y="331" on="0"/>
        <pt x="640" y="478" on="0"/>
        <pt x="534" y="553" on="1"/>
        <pt x="416" y="635" on="1"/>
        <pt x="283" y="727" on="0"/>
        <pt x="159" y="866" on="0"/>
        <pt x="92" y="1028" on="0"/>
        <pt x="92" y="1128" on="1"/>
        <pt x="92" y="1246" on="0"/>
        <pt x="203" y="1430" on="0"/>
        <pt x="303" y="1483" on="1"/>
        <pt x="403" y="1354" on="1"/>
        <pt x="375" y="1332" on="1"/>
        <pt x="333" y="1301" on="0"/>
        <pt x="279" y="1193" on="0"/>
        <pt x="279" y="1124" on="1"/>
        <pt x="279" y="1038" on="0"/>
        <pt x="366" y="888" on="0"/>
        <pt x="469" y="809" on="1"/>
        <pt x="529" y="1094" on="0"/>
        <pt x="746" y="1356" on="0"/>
        <pt x="923" y="1356" on="1"/>
        <pt x="928" y="1356" on="1"/>
      </contour>
    </TTGlyph>
    <TTGlyph name="glyph00066" xMin="205" yMin="0" xMax="389" yMax="1462">
      <contour>
        <pt x="205" y="1462" on="1"/>
        <pt x="389" y="1462" on="1"/>
        <pt x="389" y="0" on="1"/>
        <pt x="205" y="0" on="1"/>
      </contour>
    </TTGlyph>
    <TTGlyph name="glyph00067" xMin="195" yMin="82" xMax="1354" yMax="1380">
      <contour>
        <pt x="195" y="1380" on="1"/>
        <pt x="1354" y="1380" on="1"/>
        <pt x="1354" y="82" on="1"/>
        <pt x="195" y="82" on="1"/>
      </contour>
      <contour>
        <pt x="1176" y="244" on="1"/>
        <pt x="1176" y="1219" on="1"/>
        <pt x="373" y="1219" on="1"/>
        <pt x="373" y="244" on="1"/>
      </contour>
    </TTGlyph>
    <TTGlyph name="glyph00068" xMin="31" yMin="610" xMax="1534" yMax="1483">
      <contour>
        <pt x="31" y="731" on="1"/>
        <pt x="782" y="1483" on="1"/>
        <pt x="1534" y="731" on="1"/>
        <pt x="1413" y="610" on="1"/>
        <pt x="782" y="1241" on="1"/>
        <pt x="152" y="610" on="1"/>
      </contour>
    </TTGlyph>
    <TTGlyph name="glyph00069" xMin="117" yMin="0" xMax="1051" yMax="1483">
      <contour>
        <pt x="1022" y="563" on="1"/>
        <pt x="676" y="563" on="1"/>
        <pt x="676" y="0" on="1"/>
        <pt x="492" y="0" on="1"/>
        <pt x="492" y="563" on="1"/>
        <pt x="145" y="563" on="1"/>
        <pt x="145" y="711" on="1"/>
        <pt x="492" y="711" on="1"/>
        <pt x="492" y="874" on="1"/>
        <pt x="117" y="1391" on="1"/>
        <pt x="266" y="1483" on="1"/>
        <pt x="584" y="1040" on="1"/>
        <pt x="901" y="1483" on="1"/>
        <pt x="1051" y="1391" on="1"/>
        <pt x="676" y="874" on="1"/>
        <pt x="676" y="711" on="1"/>
        <pt x="1022" y="711" on="1"/>
      </contour>
    </TTGlyph>
    <TTGlyph name="glyph00070" xMin="113" yMin="0" xMax="1116" yMax="1483">
      <contour>
        <pt x="580" y="1040" on="1"/>
        <pt x="713" y="1225" on="1"/>
        <pt x="535" y="1364" on="1"/>
        <pt x="627" y="1483" on="1"/>
        <pt x="799" y="1348" on="1"/>
        <pt x="897" y="1483" on="1"/>
        <pt x="1047" y="1391" on="1"/>
        <pt x="936" y="1239" on="1"/>
        <pt x="1116" y="1100" on="1"/>
        <pt x="1026" y="983" on="1"/>
        <pt x="850" y="1118" on="1"/>
        <pt x="672" y="874" on="1"/>
        <pt x="672" y="0" on="1"/>
        <pt x="487" y="0" on="1"/>
        <pt x="487" y="874" on="1"/>
        <pt x="113" y="1391" on="1"/>
        <pt x="262" y="1483" on="1"/>
      </contour>
    </TTGlyph>
    <TTGlyph name="glyph00071" xMin="92" yMin="0" xMax="1235" yMax="1520">
      <contour>
        <pt x="1182" y="467" on="1"/>
        <pt x="756" y="0" on="1"/>
        <pt x="571" y="0" on="1"/>
        <pt x="145" y="467" on="1"/>
        <pt x="571" y="889" on="1"/>
        <pt x="571" y="1245" on="1"/>
        <pt x="182" y="928" on="1"/>
        <pt x="92" y="1059" on="1"/>
        <pt x="664" y="1520" on="1"/>
        <pt x="1235" y="1059" on="1"/>
        <pt x="1145" y="928" on="1"/>
        <pt x="756" y="1245" on="1"/>
        <pt x="756" y="889" on="1"/>
      </contour>
      <contour>
        <pt x="950" y="463" on="1"/>
        <pt x="664" y="754" on="1"/>
        <pt x="377" y="463" on="1"/>
        <pt x="664" y="156" on="1"/>
      </contour>
    </TTGlyph>
    <TTGlyph name="glyph00072" xMin="31" yMin="-20" xMax="1534" yMax="1483">
      <contour>
        <pt x="31" y="731" on="1"/>
        <pt x="782" y="1483" on="1"/>
        <pt x="1534" y="731" on="1"/>
        <pt x="1413" y="610" on="1"/>
        <pt x="782" y="1241" on="1"/>
        <pt x="152" y="610" on="1"/>
      </contour>
      <contour>
        <pt x="31" y="100" on="1"/>
        <pt x="782" y="852" on="1"/>
        <pt x="1534" y="100" on="1"/>
        <pt x="1413" y="-20" on="1"/>
        <pt x="782" y="610" on="1"/>
        <pt x="152" y="-20" on="1"/>
      </contour>
    </TTGlyph>
    <TTGlyph name="glyph00073" xMin="205" yMin="0" xMax="1118" yMax="1462">
      <contour>
        <pt x="1063" y="840" on="1"/>
        <pt x="983" y="644" on="0"/>
        <pt x="983" y="440" on="1"/>
        <pt x="983" y="214" on="0"/>
        <pt x="1118" y="0" on="1"/>
        <pt x="924" y="0" on="1"/>
        <pt x="861" y="115" on="0"/>
        <pt x="805" y="323" on="0"/>
        <pt x="805" y="430" on="1"/>
        <pt x="805" y="583" on="0"/>
        <pt x="840" y="682" on="1"/>
        <pt x="389" y="420" on="1"/>
        <pt x="389" y="0" on="1"/>
        <pt x="205" y="0" on="1"/>
        <pt x="205" y="1462" on="1"/>
        <pt x="389" y="1462" on="1"/>
        <pt x="389" y="608" on="1"/>
        <pt x="952" y="932" on="1"/>
      </contour>
    </TTGlyph>
    <TTGlyph name="glyph00074" xMin="184" yMin="0" xMax="1323" yMax="1462">
      <contour>
        <pt x="1323" y="0" on="1"/>
        <pt x="1139" y="0" on="1"/>
        <pt x="1139" y="1204" on="1"/>
        <pt x="369" y="391" on="1"/>
        <pt x="184" y="391" on="1"/>
        <pt x="184" y="1462" on="1"/>
        <pt x="369" y="1462" on="1"/>
        <pt x="369" y="657" on="1"/>
        <pt x="1139" y="1462" on="1"/>
        <pt x="1323" y="1462" on="1"/>
      </contour>
    </TTGlyph>
    <TTGlyph name="glyph00075" xMin="102" yMin="-41" xMax="1468" yMax="1462">
      <contour>
        <pt x="326" y="-35" on="1"/>
        <pt x="218" y="63" on="0"/>
        <pt x="102" y="323" on="0"/>
        <pt x="102" y="469" on="1"/>
        <pt x="102" y="641" on="0"/>
        <pt x="256" y="934" on="0"/>
        <pt x="528" y="1121" on="0"/>
        <pt x="692" y="1143" on="1"/>
        <pt x="692" y="1462" on="1"/>
        <pt x="877" y="1462" on="1"/>
        <pt x="877" y="1143" on="1"/>
        <pt x="885" y="1141" on="1"/>
        <pt x="1155" y="1462" on="1"/>
        <pt x="1389" y="1462" on="1"/>
        <pt x="1065" y="1092" on="1"/>
        <pt x="1251" y="1011" on="0"/>
        <pt x="1468" y="680" on="0"/>
        <pt x="1468" y="467" on="1"/>
        <pt x="1468" y="317" on="0"/>
        <pt x="1352" y="57" on="0"/>
        <pt x="1239" y="-41" on="1"/>
        <pt x="1116" y="80" on="1"/>
        <pt x="1194" y="148" on="0"/>
        <pt x="1282" y="347" on="0"/>
        <pt x="1282" y="469" on="1"/>
        <pt x="1282" y="614" on="0"/>
        <pt x="1151" y="851" on="0"/>
        <pt x="921" y="983" on="0"/>
        <pt x="784" y="983" on="1"/>
        <pt x="646" y="983" on="0"/>
        <pt x="418" y="850" on="0"/>
        <pt x="291" y="615" on="0"/>
        <pt x="291" y="469" on="1"/>
        <pt x="291" y="351" on="0"/>
        <pt x="373" y="158" on="0"/>
        <pt x="444" y="90" on="1"/>
      </contour>
    </TTGlyph>
    <TTGlyph name="glyph00076" xMin="205" yMin="0" xMax="1405" yMax="1462">
      <contour>
        <pt x="807" y="592" on="1"/>
        <pt x="385" y="0" on="1"/>
        <pt x="205" y="0" on="1"/>
        <pt x="205" y="1462" on="1"/>
        <pt x="385" y="1462" on="1"/>
        <pt x="807" y="868" on="1"/>
        <pt x="1235" y="1462" on="1"/>
        <pt x="1405" y="1462" on="1"/>
        <pt x="1405" y="0" on="1"/>
        <pt x="1235" y="0" on="1"/>
      </contour>
      <contour>
        <pt x="1227" y="295" on="1"/>
        <pt x="1235" y="295" on="1"/>
        <pt x="1235" y="1165" on="1"/>
        <pt x="1227" y="1165" on="1"/>
        <pt x="915" y="731" on="1"/>
      </contour>
      <contour>
        <pt x="393" y="1153" on="1"/>
        <pt x="385" y="1153" on="1"/>
        <pt x="385" y="307" on="1"/>
        <pt x="393" y="307" on="1"/>
        <pt x="700" y="731" on="1"/>
      </contour>
    </TTGlyph>
</ttFont>
